<?xml version="1.0" standalone="no"?><svg xmlns="http://www.w3.org/2000/svg" viewBox="0 0 1440 320"><path fill="#EDB7ED" fill-opacity="1" d="M0,128L34.3,144C68.6,160,137,192,206,176C274.3,160,343,96,411,96C480,96,549,160,617,160C685.7,160,754,96,823,101.3C891.4,107,960,181,1029,202.7C1097.1,224,1166,192,1234,192C1302.9,192,1371,224,1406,240L1440,256L1440,0L1405.7,0C1371.4,0,1303,0,1234,0C1165.7,0,1097,0,1029,0C960,0,891,0,823,0C754.3,0,686,0,617,0C548.6,0,480,0,411,0C342.9,0,274,0,206,0C137.1,0,69,0,34,0L0,0Z"></path></svg>