<?xml version="1.0" standalone="no"?><svg xmlns="http://www.w3.org/2000/svg" viewBox="0 0 1440 320"><path fill="#306060" fill-opacity="1" d="M0,160L30,138.7C60,117,120,75,180,64C240,53,300,75,360,101.3C420,128,480,160,540,181.3C600,203,660,213,720,213.3C780,213,840,203,900,176C960,149,1020,107,1080,106.7C1140,107,1200,149,1260,181.3C1320,213,1380,235,1410,245.3L1440,256L1440,320L1410,320C1380,320,1320,320,1260,320C1200,320,1140,320,1080,320C1020,320,960,320,900,320C840,320,780,320,720,320C660,320,600,320,540,320C480,320,420,320,360,320C300,320,240,320,180,320C120,320,60,320,30,320L0,320Z"></path></svg>